<?xml version="1.0" encoding="utf-8" standalone="no"?>
<!DOCTYPE svg PUBLIC "-//W3C//DTD SVG 1.1//EN"
  "http://www.w3.org/Graphics/SVG/1.1/DTD/svg11.dtd">
<svg xmlns:xlink="http://www.w3.org/1999/xlink" width="1000.298125pt" height="330.541644pt" viewBox="0 0 1000.298125 330.541644" xmlns="http://www.w3.org/2000/svg" version="1.1">
 <metadata>
  <rdf:RDF xmlns:dc="http://purl.org/dc/elements/1.1/" xmlns:cc="http://creativecommons.org/ns#" xmlns:rdf="http://www.w3.org/1999/02/22-rdf-syntax-ns#">
   <cc:Work>
    <dc:type rdf:resource="http://purl.org/dc/dcmitype/StillImage"/>
    <dc:date>2023-09-28T09:16:23.478937</dc:date>
    <dc:format>image/svg+xml</dc:format>
    <dc:creator>
     <cc:Agent>
      <dc:title>Matplotlib v3.7.2, https://matplotlib.org/</dc:title>
     </cc:Agent>
    </dc:creator>
   </cc:Work>
  </rdf:RDF>
 </metadata>
 <defs>
  <style type="text/css">*{stroke-linejoin: round; stroke-linecap: butt}</style>
 </defs>
 <g id="figure_1">
  <g id="axes_1">
   <g id="patch_1">
    <path d="M 32.968125 273.99006 
L 985.463125 273.99006 
L 985.463125 31.48286 
L 32.968125 31.48286 
z
" style="fill: #ffffff"/>
   </g>
   <g id="matplotlib.axis_1">
    <g id="xtick_1">
     <g id="text_1">
      <!-- 0 -->
      <g transform="translate(30.423125 287.06881) scale(0.08 -0.08)">
       <defs>
        <path id="DejaVuSans-30" d="M 2034 4250 
Q 1547 4250 1301 3770 
Q 1056 3291 1056 2328 
Q 1056 1369 1301 889 
Q 1547 409 2034 409 
Q 2525 409 2770 889 
Q 3016 1369 3016 2328 
Q 3016 3291 2770 3770 
Q 2525 4250 2034 4250 
z
M 2034 4750 
Q 2819 4750 3233 4129 
Q 3647 3509 3647 2328 
Q 3647 1150 3233 529 
Q 2819 -91 2034 -91 
Q 1250 -91 836 529 
Q 422 1150 422 2328 
Q 422 3509 836 4129 
Q 1250 4750 2034 4750 
z
" transform="scale(0.015625)"/>
       </defs>
       <use xlink:href="#DejaVuSans-30"/>
      </g>
     </g>
    </g>
    <g id="xtick_2">
     <g id="text_2">
      <!-- 20 -->
      <g transform="translate(218.377125 287.06881) scale(0.08 -0.08)">
       <defs>
        <path id="DejaVuSans-32" d="M 1228 531 
L 3431 531 
L 3431 0 
L 469 0 
L 469 531 
Q 828 903 1448 1529 
Q 2069 2156 2228 2338 
Q 2531 2678 2651 2914 
Q 2772 3150 2772 3378 
Q 2772 3750 2511 3984 
Q 2250 4219 1831 4219 
Q 1534 4219 1204 4116 
Q 875 4013 500 3803 
L 500 4441 
Q 881 4594 1212 4672 
Q 1544 4750 1819 4750 
Q 2544 4750 2975 4387 
Q 3406 4025 3406 3419 
Q 3406 3131 3298 2873 
Q 3191 2616 2906 2266 
Q 2828 2175 2409 1742 
Q 1991 1309 1228 531 
z
" transform="scale(0.015625)"/>
       </defs>
       <use xlink:href="#DejaVuSans-32"/>
       <use xlink:href="#DejaVuSans-30" x="63.623047"/>
      </g>
     </g>
    </g>
    <g id="xtick_3">
     <g id="text_3">
      <!-- 40 -->
      <g transform="translate(408.876125 287.06881) scale(0.08 -0.08)">
       <defs>
        <path id="DejaVuSans-34" d="M 2419 4116 
L 825 1625 
L 2419 1625 
L 2419 4116 
z
M 2253 4666 
L 3047 4666 
L 3047 1625 
L 3713 1625 
L 3713 1100 
L 3047 1100 
L 3047 0 
L 2419 0 
L 2419 1100 
L 313 1100 
L 313 1709 
L 2253 4666 
z
" transform="scale(0.015625)"/>
       </defs>
       <use xlink:href="#DejaVuSans-34"/>
       <use xlink:href="#DejaVuSans-30" x="63.623047"/>
      </g>
     </g>
    </g>
    <g id="xtick_4">
     <g id="text_4">
      <!-- 60 -->
      <g transform="translate(599.375125 287.06881) scale(0.08 -0.08)">
       <defs>
        <path id="DejaVuSans-36" d="M 2113 2584 
Q 1688 2584 1439 2293 
Q 1191 2003 1191 1497 
Q 1191 994 1439 701 
Q 1688 409 2113 409 
Q 2538 409 2786 701 
Q 3034 994 3034 1497 
Q 3034 2003 2786 2293 
Q 2538 2584 2113 2584 
z
M 3366 4563 
L 3366 3988 
Q 3128 4100 2886 4159 
Q 2644 4219 2406 4219 
Q 1781 4219 1451 3797 
Q 1122 3375 1075 2522 
Q 1259 2794 1537 2939 
Q 1816 3084 2150 3084 
Q 2853 3084 3261 2657 
Q 3669 2231 3669 1497 
Q 3669 778 3244 343 
Q 2819 -91 2113 -91 
Q 1303 -91 875 529 
Q 447 1150 447 2328 
Q 447 3434 972 4092 
Q 1497 4750 2381 4750 
Q 2619 4750 2861 4703 
Q 3103 4656 3366 4563 
z
" transform="scale(0.015625)"/>
       </defs>
       <use xlink:href="#DejaVuSans-36"/>
       <use xlink:href="#DejaVuSans-30" x="63.623047"/>
      </g>
     </g>
    </g>
    <g id="xtick_5">
     <g id="text_5">
      <!-- 80 -->
      <g transform="translate(789.874125 287.06881) scale(0.08 -0.08)">
       <defs>
        <path id="DejaVuSans-38" d="M 2034 2216 
Q 1584 2216 1326 1975 
Q 1069 1734 1069 1313 
Q 1069 891 1326 650 
Q 1584 409 2034 409 
Q 2484 409 2743 651 
Q 3003 894 3003 1313 
Q 3003 1734 2745 1975 
Q 2488 2216 2034 2216 
z
M 1403 2484 
Q 997 2584 770 2862 
Q 544 3141 544 3541 
Q 544 4100 942 4425 
Q 1341 4750 2034 4750 
Q 2731 4750 3128 4425 
Q 3525 4100 3525 3541 
Q 3525 3141 3298 2862 
Q 3072 2584 2669 2484 
Q 3125 2378 3379 2068 
Q 3634 1759 3634 1313 
Q 3634 634 3220 271 
Q 2806 -91 2034 -91 
Q 1263 -91 848 271 
Q 434 634 434 1313 
Q 434 1759 690 2068 
Q 947 2378 1403 2484 
z
M 1172 3481 
Q 1172 3119 1398 2916 
Q 1625 2713 2034 2713 
Q 2441 2713 2670 2916 
Q 2900 3119 2900 3481 
Q 2900 3844 2670 4047 
Q 2441 4250 2034 4250 
Q 1625 4250 1398 4047 
Q 1172 3844 1172 3481 
z
" transform="scale(0.015625)"/>
       </defs>
       <use xlink:href="#DejaVuSans-38"/>
       <use xlink:href="#DejaVuSans-30" x="63.623047"/>
      </g>
     </g>
    </g>
    <g id="xtick_6">
     <g id="text_6">
      <!-- 100 -->
      <g transform="translate(977.828125 287.06881) scale(0.08 -0.08)">
       <defs>
        <path id="DejaVuSans-31" d="M 794 531 
L 1825 531 
L 1825 4091 
L 703 3866 
L 703 4441 
L 1819 4666 
L 2450 4666 
L 2450 531 
L 3481 531 
L 3481 0 
L 794 0 
L 794 531 
z
" transform="scale(0.015625)"/>
       </defs>
       <use xlink:href="#DejaVuSans-31"/>
       <use xlink:href="#DejaVuSans-30" x="63.623047"/>
       <use xlink:href="#DejaVuSans-30" x="127.246094"/>
      </g>
     </g>
    </g>
    <g id="text_7">
     <!-- % GC -->
     <g transform="translate(495.510156 300.330997) scale(0.1 -0.1)">
      <defs>
       <path id="DejaVuSans-25" d="M 4653 2053 
Q 4381 2053 4226 1822 
Q 4072 1591 4072 1178 
Q 4072 772 4226 539 
Q 4381 306 4653 306 
Q 4919 306 5073 539 
Q 5228 772 5228 1178 
Q 5228 1588 5073 1820 
Q 4919 2053 4653 2053 
z
M 4653 2450 
Q 5147 2450 5437 2106 
Q 5728 1763 5728 1178 
Q 5728 594 5436 251 
Q 5144 -91 4653 -91 
Q 4153 -91 3862 251 
Q 3572 594 3572 1178 
Q 3572 1766 3864 2108 
Q 4156 2450 4653 2450 
z
M 1428 4353 
Q 1159 4353 1004 4120 
Q 850 3888 850 3481 
Q 850 3069 1003 2837 
Q 1156 2606 1428 2606 
Q 1700 2606 1854 2837 
Q 2009 3069 2009 3481 
Q 2009 3884 1853 4118 
Q 1697 4353 1428 4353 
z
M 4250 4750 
L 4750 4750 
L 1831 -91 
L 1331 -91 
L 4250 4750 
z
M 1428 4750 
Q 1922 4750 2215 4408 
Q 2509 4066 2509 3481 
Q 2509 2891 2217 2550 
Q 1925 2209 1428 2209 
Q 931 2209 642 2551 
Q 353 2894 353 3481 
Q 353 4063 643 4406 
Q 934 4750 1428 4750 
z
" transform="scale(0.015625)"/>
       <path id="DejaVuSans-20" transform="scale(0.015625)"/>
       <path id="DejaVuSans-47" d="M 3809 666 
L 3809 1919 
L 2778 1919 
L 2778 2438 
L 4434 2438 
L 4434 434 
Q 4069 175 3628 42 
Q 3188 -91 2688 -91 
Q 1594 -91 976 548 
Q 359 1188 359 2328 
Q 359 3472 976 4111 
Q 1594 4750 2688 4750 
Q 3144 4750 3555 4637 
Q 3966 4525 4313 4306 
L 4313 3634 
Q 3963 3931 3569 4081 
Q 3175 4231 2741 4231 
Q 1884 4231 1454 3753 
Q 1025 3275 1025 2328 
Q 1025 1384 1454 906 
Q 1884 428 2741 428 
Q 3075 428 3337 486 
Q 3600 544 3809 666 
z
" transform="scale(0.015625)"/>
       <path id="DejaVuSans-43" d="M 4122 4306 
L 4122 3641 
Q 3803 3938 3442 4084 
Q 3081 4231 2675 4231 
Q 1875 4231 1450 3742 
Q 1025 3253 1025 2328 
Q 1025 1406 1450 917 
Q 1875 428 2675 428 
Q 3081 428 3442 575 
Q 3803 722 4122 1019 
L 4122 359 
Q 3791 134 3420 21 
Q 3050 -91 2638 -91 
Q 1578 -91 968 557 
Q 359 1206 359 2328 
Q 359 3453 968 4101 
Q 1578 4750 2638 4750 
Q 3056 4750 3426 4639 
Q 3797 4528 4122 4306 
z
" transform="scale(0.015625)"/>
      </defs>
      <use xlink:href="#DejaVuSans-25"/>
      <use xlink:href="#DejaVuSans-20" x="95.019531"/>
      <use xlink:href="#DejaVuSans-47" x="126.806641"/>
      <use xlink:href="#DejaVuSans-43" x="204.296875"/>
     </g>
    </g>
   </g>
   <g id="matplotlib.axis_2">
    <g id="ytick_1">
     <g id="line2d_1">
      <path d="M 32.968125 273.99006 
L 985.463125 273.99006 
" clip-path="url(#pf50d87fd02)" style="fill: none; stroke: #dedede; stroke-linecap: square"/>
     </g>
     <g id="text_8">
      <!-- 0 -->
      <g transform="translate(20.878125 277.029435) scale(0.08 -0.08)">
       <use xlink:href="#DejaVuSans-30"/>
      </g>
     </g>
    </g>
    <g id="ytick_2">
     <g id="line2d_2">
      <path d="M 32.968125 224.768514 
L 985.463125 224.768514 
" clip-path="url(#pf50d87fd02)" style="fill: none; stroke: #dedede; stroke-linecap: square"/>
     </g>
     <g id="text_9">
      <!-- 1 -->
      <g transform="translate(20.878125 227.807889) scale(0.08 -0.08)">
       <use xlink:href="#DejaVuSans-31"/>
      </g>
     </g>
    </g>
    <g id="ytick_3">
     <g id="line2d_3">
      <path d="M 32.968125 175.546967 
L 985.463125 175.546967 
" clip-path="url(#pf50d87fd02)" style="fill: none; stroke: #dedede; stroke-linecap: square"/>
     </g>
     <g id="text_10">
      <!-- 2 -->
      <g transform="translate(20.878125 178.586342) scale(0.08 -0.08)">
       <use xlink:href="#DejaVuSans-32"/>
      </g>
     </g>
    </g>
    <g id="ytick_4">
     <g id="line2d_4">
      <path d="M 32.968125 126.325421 
L 985.463125 126.325421 
" clip-path="url(#pf50d87fd02)" style="fill: none; stroke: #dedede; stroke-linecap: square"/>
     </g>
     <g id="text_11">
      <!-- 3 -->
      <g transform="translate(20.878125 129.364796) scale(0.08 -0.08)">
       <defs>
        <path id="DejaVuSans-33" d="M 2597 2516 
Q 3050 2419 3304 2112 
Q 3559 1806 3559 1356 
Q 3559 666 3084 287 
Q 2609 -91 1734 -91 
Q 1441 -91 1130 -33 
Q 819 25 488 141 
L 488 750 
Q 750 597 1062 519 
Q 1375 441 1716 441 
Q 2309 441 2620 675 
Q 2931 909 2931 1356 
Q 2931 1769 2642 2001 
Q 2353 2234 1838 2234 
L 1294 2234 
L 1294 2753 
L 1863 2753 
Q 2328 2753 2575 2939 
Q 2822 3125 2822 3475 
Q 2822 3834 2567 4026 
Q 2313 4219 1838 4219 
Q 1578 4219 1281 4162 
Q 984 4106 628 3988 
L 628 4550 
Q 988 4650 1302 4700 
Q 1616 4750 1894 4750 
Q 2613 4750 3031 4423 
Q 3450 4097 3450 3541 
Q 3450 3153 3228 2886 
Q 3006 2619 2597 2516 
z
" transform="scale(0.015625)"/>
       </defs>
       <use xlink:href="#DejaVuSans-33"/>
      </g>
     </g>
    </g>
    <g id="ytick_5">
     <g id="line2d_5">
      <path d="M 32.968125 77.103875 
L 985.463125 77.103875 
" clip-path="url(#pf50d87fd02)" style="fill: none; stroke: #dedede; stroke-linecap: square"/>
     </g>
     <g id="text_12">
      <!-- 4 -->
      <g transform="translate(20.878125 80.14325) scale(0.08 -0.08)">
       <use xlink:href="#DejaVuSans-34"/>
      </g>
     </g>
    </g>
    <g id="text_13">
     <!-- Percentage -->
     <g transform="translate(14.798437 180.859116) rotate(-90) scale(0.1 -0.1)">
      <defs>
       <path id="DejaVuSans-50" d="M 1259 4147 
L 1259 2394 
L 2053 2394 
Q 2494 2394 2734 2622 
Q 2975 2850 2975 3272 
Q 2975 3691 2734 3919 
Q 2494 4147 2053 4147 
L 1259 4147 
z
M 628 4666 
L 2053 4666 
Q 2838 4666 3239 4311 
Q 3641 3956 3641 3272 
Q 3641 2581 3239 2228 
Q 2838 1875 2053 1875 
L 1259 1875 
L 1259 0 
L 628 0 
L 628 4666 
z
" transform="scale(0.015625)"/>
       <path id="DejaVuSans-65" d="M 3597 1894 
L 3597 1613 
L 953 1613 
Q 991 1019 1311 708 
Q 1631 397 2203 397 
Q 2534 397 2845 478 
Q 3156 559 3463 722 
L 3463 178 
Q 3153 47 2828 -22 
Q 2503 -91 2169 -91 
Q 1331 -91 842 396 
Q 353 884 353 1716 
Q 353 2575 817 3079 
Q 1281 3584 2069 3584 
Q 2775 3584 3186 3129 
Q 3597 2675 3597 1894 
z
M 3022 2063 
Q 3016 2534 2758 2815 
Q 2500 3097 2075 3097 
Q 1594 3097 1305 2825 
Q 1016 2553 972 2059 
L 3022 2063 
z
" transform="scale(0.015625)"/>
       <path id="DejaVuSans-72" d="M 2631 2963 
Q 2534 3019 2420 3045 
Q 2306 3072 2169 3072 
Q 1681 3072 1420 2755 
Q 1159 2438 1159 1844 
L 1159 0 
L 581 0 
L 581 3500 
L 1159 3500 
L 1159 2956 
Q 1341 3275 1631 3429 
Q 1922 3584 2338 3584 
Q 2397 3584 2469 3576 
Q 2541 3569 2628 3553 
L 2631 2963 
z
" transform="scale(0.015625)"/>
       <path id="DejaVuSans-63" d="M 3122 3366 
L 3122 2828 
Q 2878 2963 2633 3030 
Q 2388 3097 2138 3097 
Q 1578 3097 1268 2742 
Q 959 2388 959 1747 
Q 959 1106 1268 751 
Q 1578 397 2138 397 
Q 2388 397 2633 464 
Q 2878 531 3122 666 
L 3122 134 
Q 2881 22 2623 -34 
Q 2366 -91 2075 -91 
Q 1284 -91 818 406 
Q 353 903 353 1747 
Q 353 2603 823 3093 
Q 1294 3584 2113 3584 
Q 2378 3584 2631 3529 
Q 2884 3475 3122 3366 
z
" transform="scale(0.015625)"/>
       <path id="DejaVuSans-6e" d="M 3513 2113 
L 3513 0 
L 2938 0 
L 2938 2094 
Q 2938 2591 2744 2837 
Q 2550 3084 2163 3084 
Q 1697 3084 1428 2787 
Q 1159 2491 1159 1978 
L 1159 0 
L 581 0 
L 581 3500 
L 1159 3500 
L 1159 2956 
Q 1366 3272 1645 3428 
Q 1925 3584 2291 3584 
Q 2894 3584 3203 3211 
Q 3513 2838 3513 2113 
z
" transform="scale(0.015625)"/>
       <path id="DejaVuSans-74" d="M 1172 4494 
L 1172 3500 
L 2356 3500 
L 2356 3053 
L 1172 3053 
L 1172 1153 
Q 1172 725 1289 603 
Q 1406 481 1766 481 
L 2356 481 
L 2356 0 
L 1766 0 
Q 1100 0 847 248 
Q 594 497 594 1153 
L 594 3053 
L 172 3053 
L 172 3500 
L 594 3500 
L 594 4494 
L 1172 4494 
z
" transform="scale(0.015625)"/>
       <path id="DejaVuSans-61" d="M 2194 1759 
Q 1497 1759 1228 1600 
Q 959 1441 959 1056 
Q 959 750 1161 570 
Q 1363 391 1709 391 
Q 2188 391 2477 730 
Q 2766 1069 2766 1631 
L 2766 1759 
L 2194 1759 
z
M 3341 1997 
L 3341 0 
L 2766 0 
L 2766 531 
Q 2569 213 2275 61 
Q 1981 -91 1556 -91 
Q 1019 -91 701 211 
Q 384 513 384 1019 
Q 384 1609 779 1909 
Q 1175 2209 1959 2209 
L 2766 2209 
L 2766 2266 
Q 2766 2663 2505 2880 
Q 2244 3097 1772 3097 
Q 1472 3097 1187 3025 
Q 903 2953 641 2809 
L 641 3341 
Q 956 3463 1253 3523 
Q 1550 3584 1831 3584 
Q 2591 3584 2966 3190 
Q 3341 2797 3341 1997 
z
" transform="scale(0.015625)"/>
       <path id="DejaVuSans-67" d="M 2906 1791 
Q 2906 2416 2648 2759 
Q 2391 3103 1925 3103 
Q 1463 3103 1205 2759 
Q 947 2416 947 1791 
Q 947 1169 1205 825 
Q 1463 481 1925 481 
Q 2391 481 2648 825 
Q 2906 1169 2906 1791 
z
M 3481 434 
Q 3481 -459 3084 -895 
Q 2688 -1331 1869 -1331 
Q 1566 -1331 1297 -1286 
Q 1028 -1241 775 -1147 
L 775 -588 
Q 1028 -725 1275 -790 
Q 1522 -856 1778 -856 
Q 2344 -856 2625 -561 
Q 2906 -266 2906 331 
L 2906 616 
Q 2728 306 2450 153 
Q 2172 0 1784 0 
Q 1141 0 747 490 
Q 353 981 353 1791 
Q 353 2603 747 3093 
Q 1141 3584 1784 3584 
Q 2172 3584 2450 3431 
Q 2728 3278 2906 2969 
L 2906 3500 
L 3481 3500 
L 3481 434 
z
" transform="scale(0.015625)"/>
      </defs>
      <use xlink:href="#DejaVuSans-50"/>
      <use xlink:href="#DejaVuSans-65" x="56.677734"/>
      <use xlink:href="#DejaVuSans-72" x="118.201172"/>
      <use xlink:href="#DejaVuSans-63" x="157.064453"/>
      <use xlink:href="#DejaVuSans-65" x="212.044922"/>
      <use xlink:href="#DejaVuSans-6e" x="273.568359"/>
      <use xlink:href="#DejaVuSans-74" x="336.947266"/>
      <use xlink:href="#DejaVuSans-61" x="376.15625"/>
      <use xlink:href="#DejaVuSans-67" x="437.435547"/>
      <use xlink:href="#DejaVuSans-65" x="500.912109"/>
     </g>
    </g>
   </g>
   <g id="line2d_6">
    <path d="M 32.968125 273.987566 
L 42.493075 273.987566 
L 52.018025 273.986527 
L 61.542975 273.985488 
L 71.067925 273.985488 
L 80.592875 273.985488 
L 90.117825 273.982403 
L 99.642775 273.979317 
L 109.167725 273.979317 
L 118.692675 273.979317 
L 128.217625 273.971111 
L 137.742575 273.962905 
L 147.267525 273.962905 
L 156.792475 273.945401 
L 166.317425 273.927897 
L 175.842375 273.927897 
L 185.367325 273.927897 
L 194.892275 273.855557 
L 204.417225 273.783217 
L 213.942175 273.783217 
L 223.467125 273.783217 
L 232.992075 273.293603 
L 242.517025 272.803988 
L 252.041975 272.803988 
L 261.566925 272.803988 
L 271.091875 270.512711 
L 280.616825 268.221434 
L 290.141775 268.221434 
L 299.666725 268.221434 
L 309.191675 260.321109 
L 318.716625 252.420784 
L 328.241575 252.420784 
L 337.766525 252.420784 
L 347.291475 234.223942 
L 356.816425 216.027099 
L 366.341375 216.027099 
L 375.866325 216.027099 
L 385.391275 186.512174 
L 394.916225 156.997249 
L 404.441175 156.997249 
L 413.966125 124.183079 
L 423.491075 91.36891 
L 433.016025 91.36891 
L 442.540975 91.36891 
L 452.065925 68.469242 
L 461.590875 45.569573 
L 471.115825 45.569573 
L 480.640775 45.569573 
L 490.165725 44.30019 
L 499.690675 43.030807 
L 509.215625 43.030807 
L 518.740575 43.030807 
L 528.265525 63.308432 
L 537.790475 83.586057 
L 547.315425 83.586057 
L 556.840375 83.586057 
L 566.365325 114.716186 
L 575.890275 145.846315 
L 585.415225 145.846315 
L 594.940175 145.846315 
L 604.465125 175.07757 
L 613.990075 204.308825 
L 623.515025 204.308825 
L 633.039975 224.135467 
L 642.564925 243.962109 
L 652.089875 243.962109 
L 661.614825 243.962109 
L 671.139775 253.960416 
L 680.664725 263.958723 
L 690.189675 263.958723 
L 699.714625 263.958723 
L 709.239575 267.725062 
L 718.764525 271.491401 
L 728.289475 271.491401 
L 737.814425 271.491401 
L 747.339375 272.506308 
L 756.864325 273.521215 
L 766.389275 273.521215 
L 775.914225 273.521215 
L 785.439175 273.698525 
L 794.964125 273.875834 
L 804.489075 273.875834 
L 814.014025 273.875834 
L 823.538975 273.917036 
L 833.063925 273.958237 
L 842.588875 273.958237 
L 852.113825 273.958237 
L 861.638775 273.968186 
L 871.163725 273.978136 
L 880.688675 273.978136 
L 890.213625 273.980064 
L 899.738575 273.981992 
L 909.263525 273.981992 
L 918.788475 273.981992 
L 928.313425 273.985398 
L 937.838375 273.988804 
L 947.363325 273.988804 
L 956.888275 273.988804 
L 966.413225 273.989274 
L 975.938175 273.989744 
L 985.463125 273.989744 
" clip-path="url(#pf50d87fd02)" style="fill: none; stroke: #5cb85c; stroke-linecap: square"/>
   </g>
   <g id="line2d_7">
    <path d="M 32.968125 273.051469 
L 42.493075 272.073234 
L 52.018025 270.833154 
L 61.542975 270.939144 
L 71.067925 271.289653 
L 80.592875 271.394801 
L 90.117825 271.501678 
L 99.642775 271.511355 
L 109.167725 271.548448 
L 118.692675 271.40267 
L 128.217625 271.219474 
L 137.742575 271.18255 
L 147.267525 270.948879 
L 156.792475 270.707566 
L 166.317425 270.539197 
L 175.842375 269.806027 
L 185.367325 269.12811 
L 194.892275 268.744515 
L 204.417225 267.973307 
L 213.942175 266.72791 
L 223.467125 265.007651 
L 232.992075 262.758094 
L 242.517025 258.631848 
L 252.041975 253.81501 
L 261.566925 249.875682 
L 271.091875 245.57299 
L 280.616825 239.371477 
L 290.141775 231.305688 
L 299.666725 222.999811 
L 309.191675 215.545721 
L 318.716625 210.415565 
L 328.241575 206.476562 
L 337.766525 199.683835 
L 347.291475 191.807395 
L 356.816425 186.005056 
L 366.341375 178.322579 
L 375.866325 170.079469 
L 385.391275 165.787353 
L 394.916225 162.671593 
L 404.441175 157.417977 
L 413.966125 151.140295 
L 423.491075 146.831236 
L 433.016025 143.533093 
L 442.540975 138.621833 
L 452.065925 133.20208 
L 461.590875 125.238478 
L 471.115825 115.076234 
L 480.640775 104.595744 
L 490.165725 95.980173 
L 499.690675 92.766291 
L 509.215625 92.342456 
L 518.740575 94.416332 
L 528.265525 100.97493 
L 537.790475 111.415092 
L 547.315425 121.611894 
L 556.840375 127.000932 
L 566.365325 133.698692 
L 575.890275 143.318725 
L 585.415225 151.675843 
L 594.940175 160.807533 
L 604.465125 161.211167 
L 613.990075 165.975779 
L 623.515025 188.123255 
L 633.039975 205.864225 
L 642.564925 214.612726 
L 652.089875 223.188909 
L 661.614825 232.11487 
L 671.139775 241.543914 
L 680.664725 250.622699 
L 690.189675 257.270848 
L 699.714625 261.44725 
L 709.239575 264.733374 
L 718.764525 267.551733 
L 728.289475 269.154922 
L 737.814425 270.134543 
L 747.339375 270.799361 
L 756.864325 271.192332 
L 766.389275 271.531111 
L 775.914225 272.049356 
L 785.439175 272.525146 
L 794.964125 272.843242 
L 804.489075 273.146494 
L 814.014025 273.330855 
L 823.538975 273.43453 
L 833.063925 273.608547 
L 842.588875 273.74078 
L 852.113825 273.801147 
L 861.638775 273.832088 
L 871.163725 273.860361 
L 880.688675 273.891371 
L 890.213625 273.919563 
L 899.738575 273.937155 
L 909.263525 273.9483 
L 918.788475 273.955536 
L 928.313425 273.960656 
L 937.838375 273.964814 
L 947.363325 273.96907 
L 956.888275 273.97089 
L 966.413225 273.959792 
L 975.938175 273.914907 
L 985.463125 273.881432 
" clip-path="url(#pf50d87fd02)" style="fill: none; stroke: #f0ad4e; stroke-linecap: square"/>
   </g>
   <g id="line2d_8">
    <path d="M 32.968125 273.986603 
L 42.493075 273.986603 
L 52.018025 273.978603 
L 61.542975 273.970604 
L 71.067925 273.970604 
L 80.592875 273.970604 
L 90.117825 273.940933 
L 99.642775 273.911262 
L 109.167725 273.911262 
L 118.692675 273.911262 
L 128.217625 273.838275 
L 137.742575 273.765289 
L 147.267525 273.765289 
L 156.792475 273.646715 
L 166.317425 273.528141 
L 175.842375 273.528141 
L 185.367325 273.528141 
L 194.892275 273.339218 
L 204.417225 273.150295 
L 213.942175 273.150295 
L 223.467125 273.150295 
L 232.992075 272.482553 
L 242.517025 271.814811 
L 252.041975 271.814811 
L 261.566925 271.814811 
L 271.091875 268.866916 
L 280.616825 265.919021 
L 290.141775 265.919021 
L 299.666725 265.919021 
L 309.191675 256.883492 
L 318.716625 247.847964 
L 328.241575 247.847964 
L 337.766525 247.847964 
L 347.291475 228.44068 
L 356.816425 209.033395 
L 366.341375 209.033395 
L 375.866325 209.033395 
L 385.391275 179.330679 
L 394.916225 149.627962 
L 404.441175 149.627962 
L 413.966125 118.15521 
L 423.491075 86.682457 
L 433.016025 86.682457 
L 442.540975 86.682457 
L 452.065925 66.512401 
L 461.590875 46.342344 
L 471.115825 46.342344 
L 480.640775 46.342344 
L 490.165725 47.336317 
L 499.690675 48.330289 
L 509.215625 48.330289 
L 518.740575 48.330289 
L 528.265525 69.493356 
L 537.790475 90.656423 
L 547.315425 90.656423 
L 556.840375 90.656423 
L 566.365325 121.454995 
L 575.890275 152.253567 
L 585.415225 152.253567 
L 594.940175 152.253567 
L 604.465125 180.430766 
L 613.990075 208.607966 
L 623.515025 208.607966 
L 633.039975 227.391802 
L 642.564925 246.175637 
L 652.089875 246.175637 
L 661.614825 246.175637 
L 671.139775 255.500181 
L 680.664725 264.824725 
L 690.189675 264.824725 
L 699.714625 264.824725 
L 709.239575 268.310376 
L 718.764525 271.796028 
L 728.289475 271.796028 
L 737.814425 271.796028 
L 747.339375 272.703237 
L 756.864325 273.610446 
L 766.389275 273.610446 
L 775.914225 273.610446 
L 785.439175 273.772626 
L 794.964125 273.934807 
L 804.489075 273.934807 
L 814.014025 273.934807 
L 823.538975 273.955702 
L 833.063925 273.976597 
L 842.588875 273.976597 
L 852.113825 273.976597 
L 861.638775 273.980908 
L 871.163725 273.985219 
L 880.688675 273.985219 
L 890.213625 273.986343 
L 899.738575 273.987468 
L 909.263525 273.987468 
L 918.788475 273.987468 
L 928.313425 273.98826 
L 937.838375 273.989052 
L 947.363325 273.989052 
L 956.888275 273.989052 
L 966.413225 273.989385 
L 975.938175 273.989718 
L 985.463125 273.989718 
" clip-path="url(#pf50d87fd02)" style="fill: none; stroke: #5cb85c; stroke-linecap: square"/>
   </g>
   <g id="line2d_9">
    <path d="M 32.968125 273.095418 
L 42.493075 272.146473 
L 52.018025 270.333087 
L 61.542975 269.297899 
L 71.067925 268.951329 
L 80.592875 268.780332 
L 90.117825 268.696252 
L 99.642775 268.615121 
L 109.167725 268.610968 
L 118.692675 268.434013 
L 128.217625 268.16538 
L 137.742575 268.061773 
L 147.267525 268.011781 
L 156.792475 267.640751 
L 166.317425 267.183623 
L 175.842375 266.764882 
L 185.367325 265.874116 
L 194.892275 264.479397 
L 204.417225 263.030528 
L 213.942175 261.188158 
L 223.467125 258.984108 
L 232.992075 256.111741 
L 242.517025 254.263321 
L 252.041975 251.96428 
L 261.566925 246.909778 
L 271.091875 241.552277 
L 280.616825 236.034828 
L 290.141775 228.581057 
L 299.666725 220.067764 
L 309.191675 211.64593 
L 318.716625 206.347434 
L 328.241575 203.219243 
L 337.766525 197.119066 
L 347.291475 193.295486 
L 356.816425 189.477012 
L 366.341375 181.060416 
L 375.866325 173.288225 
L 385.391275 166.384952 
L 394.916225 160.925992 
L 404.441175 158.061872 
L 413.966125 153.077722 
L 423.491075 146.64016 
L 433.016025 142.731654 
L 442.540975 138.134914 
L 452.065925 134.858904 
L 461.590875 130.488714 
L 471.115825 122.573689 
L 480.640775 116.931883 
L 490.165725 112.522778 
L 499.690675 108.28826 
L 509.215625 109.004671 
L 518.740575 114.769784 
L 528.265525 121.451122 
L 537.790475 126.568444 
L 547.315425 128.100759 
L 556.840375 131.69595 
L 566.365325 135.32113 
L 575.890275 144.275184 
L 585.415225 155.401038 
L 594.940175 159.250645 
L 604.465125 163.019617 
L 613.990075 172.688746 
L 623.515025 185.677073 
L 633.039975 199.214946 
L 642.564925 212.132014 
L 652.089875 221.905657 
L 661.614825 230.867005 
L 671.139775 234.844269 
L 680.664725 241.461326 
L 690.189675 251.722957 
L 699.714625 257.744397 
L 709.239575 261.909197 
L 718.764525 265.687526 
L 728.289475 268.314 
L 737.814425 269.505564 
L 747.339375 270.357064 
L 756.864325 270.910135 
L 766.389275 271.33986 
L 775.914225 271.51253 
L 785.439175 271.849174 
L 794.964125 272.407839 
L 804.489075 272.741601 
L 814.014025 272.952876 
L 823.538975 273.109893 
L 833.063925 273.242769 
L 842.588875 273.38869 
L 852.113825 273.472777 
L 861.638775 273.494658 
L 871.163725 273.520845 
L 880.688675 273.538705 
L 890.213625 273.539459 
L 899.738575 273.536675 
L 909.263525 273.531537 
L 918.788475 273.520778 
L 928.313425 273.502739 
L 937.838375 273.479112 
L 947.363325 273.433319 
L 956.888275 273.343017 
L 966.413225 273.125109 
L 975.938175 271.172989 
L 985.463125 269.37952 
" clip-path="url(#pf50d87fd02)" style="fill: none; stroke: #5cb85c; stroke-linecap: square"/>
   </g>
   <g id="line2d_10">
    <path d="M 32.968125 273.99006 
L 985.463125 273.99006 
" clip-path="url(#pf50d87fd02)" style="fill: none; stroke: #dedede; stroke-width: 2; stroke-linecap: square"/>
   </g>
   <g id="text_14">
    <!-- FastQC: Per Sequence GC Content -->
    <g transform="translate(372.579375 19.3575) scale(0.16 -0.16)">
     <defs>
      <path id="DejaVuSans-46" d="M 628 4666 
L 3309 4666 
L 3309 4134 
L 1259 4134 
L 1259 2759 
L 3109 2759 
L 3109 2228 
L 1259 2228 
L 1259 0 
L 628 0 
L 628 4666 
z
" transform="scale(0.015625)"/>
      <path id="DejaVuSans-73" d="M 2834 3397 
L 2834 2853 
Q 2591 2978 2328 3040 
Q 2066 3103 1784 3103 
Q 1356 3103 1142 2972 
Q 928 2841 928 2578 
Q 928 2378 1081 2264 
Q 1234 2150 1697 2047 
L 1894 2003 
Q 2506 1872 2764 1633 
Q 3022 1394 3022 966 
Q 3022 478 2636 193 
Q 2250 -91 1575 -91 
Q 1294 -91 989 -36 
Q 684 19 347 128 
L 347 722 
Q 666 556 975 473 
Q 1284 391 1588 391 
Q 1994 391 2212 530 
Q 2431 669 2431 922 
Q 2431 1156 2273 1281 
Q 2116 1406 1581 1522 
L 1381 1569 
Q 847 1681 609 1914 
Q 372 2147 372 2553 
Q 372 3047 722 3315 
Q 1072 3584 1716 3584 
Q 2034 3584 2315 3537 
Q 2597 3491 2834 3397 
z
" transform="scale(0.015625)"/>
      <path id="DejaVuSans-51" d="M 2522 4238 
Q 1834 4238 1429 3725 
Q 1025 3213 1025 2328 
Q 1025 1447 1429 934 
Q 1834 422 2522 422 
Q 3209 422 3611 934 
Q 4013 1447 4013 2328 
Q 4013 3213 3611 3725 
Q 3209 4238 2522 4238 
z
M 3406 84 
L 4238 -825 
L 3475 -825 
L 2784 -78 
Q 2681 -84 2626 -87 
Q 2572 -91 2522 -91 
Q 1538 -91 948 567 
Q 359 1225 359 2328 
Q 359 3434 948 4092 
Q 1538 4750 2522 4750 
Q 3503 4750 4090 4092 
Q 4678 3434 4678 2328 
Q 4678 1516 4351 937 
Q 4025 359 3406 84 
z
" transform="scale(0.015625)"/>
      <path id="DejaVuSans-3a" d="M 750 794 
L 1409 794 
L 1409 0 
L 750 0 
L 750 794 
z
M 750 3309 
L 1409 3309 
L 1409 2516 
L 750 2516 
L 750 3309 
z
" transform="scale(0.015625)"/>
      <path id="DejaVuSans-53" d="M 3425 4513 
L 3425 3897 
Q 3066 4069 2747 4153 
Q 2428 4238 2131 4238 
Q 1616 4238 1336 4038 
Q 1056 3838 1056 3469 
Q 1056 3159 1242 3001 
Q 1428 2844 1947 2747 
L 2328 2669 
Q 3034 2534 3370 2195 
Q 3706 1856 3706 1288 
Q 3706 609 3251 259 
Q 2797 -91 1919 -91 
Q 1588 -91 1214 -16 
Q 841 59 441 206 
L 441 856 
Q 825 641 1194 531 
Q 1563 422 1919 422 
Q 2459 422 2753 634 
Q 3047 847 3047 1241 
Q 3047 1584 2836 1778 
Q 2625 1972 2144 2069 
L 1759 2144 
Q 1053 2284 737 2584 
Q 422 2884 422 3419 
Q 422 4038 858 4394 
Q 1294 4750 2059 4750 
Q 2388 4750 2728 4690 
Q 3069 4631 3425 4513 
z
" transform="scale(0.015625)"/>
      <path id="DejaVuSans-71" d="M 947 1747 
Q 947 1113 1208 752 
Q 1469 391 1925 391 
Q 2381 391 2643 752 
Q 2906 1113 2906 1747 
Q 2906 2381 2643 2742 
Q 2381 3103 1925 3103 
Q 1469 3103 1208 2742 
Q 947 2381 947 1747 
z
M 2906 525 
Q 2725 213 2448 61 
Q 2172 -91 1784 -91 
Q 1150 -91 751 415 
Q 353 922 353 1747 
Q 353 2572 751 3078 
Q 1150 3584 1784 3584 
Q 2172 3584 2448 3432 
Q 2725 3281 2906 2969 
L 2906 3500 
L 3481 3500 
L 3481 -1331 
L 2906 -1331 
L 2906 525 
z
" transform="scale(0.015625)"/>
      <path id="DejaVuSans-75" d="M 544 1381 
L 544 3500 
L 1119 3500 
L 1119 1403 
Q 1119 906 1312 657 
Q 1506 409 1894 409 
Q 2359 409 2629 706 
Q 2900 1003 2900 1516 
L 2900 3500 
L 3475 3500 
L 3475 0 
L 2900 0 
L 2900 538 
Q 2691 219 2414 64 
Q 2138 -91 1772 -91 
Q 1169 -91 856 284 
Q 544 659 544 1381 
z
M 1991 3584 
L 1991 3584 
z
" transform="scale(0.015625)"/>
      <path id="DejaVuSans-6f" d="M 1959 3097 
Q 1497 3097 1228 2736 
Q 959 2375 959 1747 
Q 959 1119 1226 758 
Q 1494 397 1959 397 
Q 2419 397 2687 759 
Q 2956 1122 2956 1747 
Q 2956 2369 2687 2733 
Q 2419 3097 1959 3097 
z
M 1959 3584 
Q 2709 3584 3137 3096 
Q 3566 2609 3566 1747 
Q 3566 888 3137 398 
Q 2709 -91 1959 -91 
Q 1206 -91 779 398 
Q 353 888 353 1747 
Q 353 2609 779 3096 
Q 1206 3584 1959 3584 
z
" transform="scale(0.015625)"/>
     </defs>
     <use xlink:href="#DejaVuSans-46"/>
     <use xlink:href="#DejaVuSans-61" x="48.394531"/>
     <use xlink:href="#DejaVuSans-73" x="109.673828"/>
     <use xlink:href="#DejaVuSans-74" x="161.773438"/>
     <use xlink:href="#DejaVuSans-51" x="200.982422"/>
     <use xlink:href="#DejaVuSans-43" x="279.693359"/>
     <use xlink:href="#DejaVuSans-3a" x="349.517578"/>
     <use xlink:href="#DejaVuSans-20" x="383.208984"/>
     <use xlink:href="#DejaVuSans-50" x="414.996094"/>
     <use xlink:href="#DejaVuSans-65" x="471.673828"/>
     <use xlink:href="#DejaVuSans-72" x="533.197266"/>
     <use xlink:href="#DejaVuSans-20" x="574.310547"/>
     <use xlink:href="#DejaVuSans-53" x="606.097656"/>
     <use xlink:href="#DejaVuSans-65" x="669.574219"/>
     <use xlink:href="#DejaVuSans-71" x="731.097656"/>
     <use xlink:href="#DejaVuSans-75" x="794.574219"/>
     <use xlink:href="#DejaVuSans-65" x="857.953125"/>
     <use xlink:href="#DejaVuSans-6e" x="919.476562"/>
     <use xlink:href="#DejaVuSans-63" x="982.855469"/>
     <use xlink:href="#DejaVuSans-65" x="1037.835938"/>
     <use xlink:href="#DejaVuSans-20" x="1099.359375"/>
     <use xlink:href="#DejaVuSans-47" x="1131.146484"/>
     <use xlink:href="#DejaVuSans-43" x="1208.636719"/>
     <use xlink:href="#DejaVuSans-20" x="1278.460938"/>
     <use xlink:href="#DejaVuSans-43" x="1310.248047"/>
     <use xlink:href="#DejaVuSans-6f" x="1380.072266"/>
     <use xlink:href="#DejaVuSans-6e" x="1441.253906"/>
     <use xlink:href="#DejaVuSans-74" x="1504.632812"/>
     <use xlink:href="#DejaVuSans-65" x="1543.841797"/>
     <use xlink:href="#DejaVuSans-6e" x="1605.365234"/>
     <use xlink:href="#DejaVuSans-74" x="1668.744141"/>
    </g>
   </g>
   <g id="legend_1">
    <g id="line2d_11">
     <path d="M 40.168125 315.455394 
L 48.168125 315.455394 
L 56.168125 315.455394 
" style="fill: none; stroke: #5cb85c; stroke-linecap: square"/>
    </g>
    <g id="text_15">
     <!-- GC1_1 -->
     <g transform="translate(62.568125 318.255394) scale(0.08 -0.08)">
      <defs>
       <path id="DejaVuSans-5f" d="M 3263 -1063 
L 3263 -1509 
L -63 -1509 
L -63 -1063 
L 3263 -1063 
z
" transform="scale(0.015625)"/>
      </defs>
      <use xlink:href="#DejaVuSans-47"/>
      <use xlink:href="#DejaVuSans-43" x="77.490234"/>
      <use xlink:href="#DejaVuSans-31" x="147.314453"/>
      <use xlink:href="#DejaVuSans-5f" x="210.9375"/>
      <use xlink:href="#DejaVuSans-31" x="260.9375"/>
     </g>
    </g>
    <g id="line2d_12">
     <path d="M 336.744792 315.455394 
L 344.744792 315.455394 
L 352.744792 315.455394 
" style="fill: none; stroke: #f0ad4e; stroke-linecap: square"/>
    </g>
    <g id="text_16">
     <!-- GC1_2 -->
     <g transform="translate(359.144792 318.255394) scale(0.08 -0.08)">
      <use xlink:href="#DejaVuSans-47"/>
      <use xlink:href="#DejaVuSans-43" x="77.490234"/>
      <use xlink:href="#DejaVuSans-31" x="147.314453"/>
      <use xlink:href="#DejaVuSans-5f" x="210.9375"/>
      <use xlink:href="#DejaVuSans-32" x="260.9375"/>
     </g>
    </g>
    <g id="line2d_13">
     <path d="M 633.321458 315.455394 
L 641.321458 315.455394 
L 649.321458 315.455394 
" style="fill: none; stroke: #5cb85c; stroke-linecap: square"/>
    </g>
    <g id="text_17">
     <!-- GC2_1 -->
     <g transform="translate(655.721458 318.255394) scale(0.08 -0.08)">
      <use xlink:href="#DejaVuSans-47"/>
      <use xlink:href="#DejaVuSans-43" x="77.490234"/>
      <use xlink:href="#DejaVuSans-32" x="147.314453"/>
      <use xlink:href="#DejaVuSans-5f" x="210.9375"/>
      <use xlink:href="#DejaVuSans-31" x="260.9375"/>
     </g>
    </g>
    <g id="line2d_14">
     <path d="M 929.898125 315.455394 
L 937.898125 315.455394 
L 945.898125 315.455394 
" style="fill: none; stroke: #5cb85c; stroke-linecap: square"/>
    </g>
    <g id="text_18">
     <!-- GC2_2 -->
     <g transform="translate(952.298125 318.255394) scale(0.08 -0.08)">
      <use xlink:href="#DejaVuSans-47"/>
      <use xlink:href="#DejaVuSans-43" x="77.490234"/>
      <use xlink:href="#DejaVuSans-32" x="147.314453"/>
      <use xlink:href="#DejaVuSans-5f" x="210.9375"/>
      <use xlink:href="#DejaVuSans-32" x="260.9375"/>
     </g>
    </g>
   </g>
  </g>
 </g>
 <defs>
  <clipPath id="pf50d87fd02">
   <rect x="32.968125" y="31.48286" width="952.495" height="242.5072"/>
  </clipPath>
 </defs>
</svg>
