<?xml version="1.0" encoding="utf-8" standalone="no"?>
<!DOCTYPE svg PUBLIC "-//W3C//DTD SVG 1.1//EN"
  "http://www.w3.org/Graphics/SVG/1.1/DTD/svg11.dtd">
<svg xmlns:xlink="http://www.w3.org/1999/xlink" width="1000.298125pt" height="330.541644pt" viewBox="0 0 1000.298125 330.541644" xmlns="http://www.w3.org/2000/svg" version="1.1">
 <metadata>
  <rdf:RDF xmlns:dc="http://purl.org/dc/elements/1.1/" xmlns:cc="http://creativecommons.org/ns#" xmlns:rdf="http://www.w3.org/1999/02/22-rdf-syntax-ns#">
   <cc:Work>
    <dc:type rdf:resource="http://purl.org/dc/dcmitype/StillImage"/>
    <dc:date>2023-09-28T09:16:24.884375</dc:date>
    <dc:format>image/svg+xml</dc:format>
    <dc:creator>
     <cc:Agent>
      <dc:title>Matplotlib v3.7.2, https://matplotlib.org/</dc:title>
     </cc:Agent>
    </dc:creator>
   </cc:Work>
  </rdf:RDF>
 </metadata>
 <defs>
  <style type="text/css">*{stroke-linejoin: round; stroke-linecap: butt}</style>
 </defs>
 <g id="figure_1">
  <g id="axes_1">
   <g id="patch_1">
    <path d="M 32.968125 273.99006 
L 985.463125 273.99006 
L 985.463125 31.48286 
L 32.968125 31.48286 
z
" style="fill: #ffffff"/>
   </g>
   <g id="matplotlib.axis_1">
    <g id="xtick_1">
     <g id="text_1">
      <!-- 0 -->
      <g transform="translate(30.423125 287.06881) scale(0.08 -0.08)">
       <defs>
        <path id="DejaVuSans-30" d="M 2034 4250 
Q 1547 4250 1301 3770 
Q 1056 3291 1056 2328 
Q 1056 1369 1301 889 
Q 1547 409 2034 409 
Q 2525 409 2770 889 
Q 3016 1369 3016 2328 
Q 3016 3291 2770 3770 
Q 2525 4250 2034 4250 
z
M 2034 4750 
Q 2819 4750 3233 4129 
Q 3647 3509 3647 2328 
Q 3647 1150 3233 529 
Q 2819 -91 2034 -91 
Q 1250 -91 836 529 
Q 422 1150 422 2328 
Q 422 3509 836 4129 
Q 1250 4750 2034 4750 
z
" transform="scale(0.015625)"/>
       </defs>
       <use xlink:href="#DejaVuSans-30"/>
      </g>
     </g>
    </g>
    <g id="xtick_2">
     <g id="text_2">
      <!-- 20 -->
      <g transform="translate(218.377125 287.06881) scale(0.08 -0.08)">
       <defs>
        <path id="DejaVuSans-32" d="M 1228 531 
L 3431 531 
L 3431 0 
L 469 0 
L 469 531 
Q 828 903 1448 1529 
Q 2069 2156 2228 2338 
Q 2531 2678 2651 2914 
Q 2772 3150 2772 3378 
Q 2772 3750 2511 3984 
Q 2250 4219 1831 4219 
Q 1534 4219 1204 4116 
Q 875 4013 500 3803 
L 500 4441 
Q 881 4594 1212 4672 
Q 1544 4750 1819 4750 
Q 2544 4750 2975 4387 
Q 3406 4025 3406 3419 
Q 3406 3131 3298 2873 
Q 3191 2616 2906 2266 
Q 2828 2175 2409 1742 
Q 1991 1309 1228 531 
z
" transform="scale(0.015625)"/>
       </defs>
       <use xlink:href="#DejaVuSans-32"/>
       <use xlink:href="#DejaVuSans-30" x="63.623047"/>
      </g>
     </g>
    </g>
    <g id="xtick_3">
     <g id="text_3">
      <!-- 40 -->
      <g transform="translate(408.876125 287.06881) scale(0.08 -0.08)">
       <defs>
        <path id="DejaVuSans-34" d="M 2419 4116 
L 825 1625 
L 2419 1625 
L 2419 4116 
z
M 2253 4666 
L 3047 4666 
L 3047 1625 
L 3713 1625 
L 3713 1100 
L 3047 1100 
L 3047 0 
L 2419 0 
L 2419 1100 
L 313 1100 
L 313 1709 
L 2253 4666 
z
" transform="scale(0.015625)"/>
       </defs>
       <use xlink:href="#DejaVuSans-34"/>
       <use xlink:href="#DejaVuSans-30" x="63.623047"/>
      </g>
     </g>
    </g>
    <g id="xtick_4">
     <g id="text_4">
      <!-- 60 -->
      <g transform="translate(599.375125 287.06881) scale(0.08 -0.08)">
       <defs>
        <path id="DejaVuSans-36" d="M 2113 2584 
Q 1688 2584 1439 2293 
Q 1191 2003 1191 1497 
Q 1191 994 1439 701 
Q 1688 409 2113 409 
Q 2538 409 2786 701 
Q 3034 994 3034 1497 
Q 3034 2003 2786 2293 
Q 2538 2584 2113 2584 
z
M 3366 4563 
L 3366 3988 
Q 3128 4100 2886 4159 
Q 2644 4219 2406 4219 
Q 1781 4219 1451 3797 
Q 1122 3375 1075 2522 
Q 1259 2794 1537 2939 
Q 1816 3084 2150 3084 
Q 2853 3084 3261 2657 
Q 3669 2231 3669 1497 
Q 3669 778 3244 343 
Q 2819 -91 2113 -91 
Q 1303 -91 875 529 
Q 447 1150 447 2328 
Q 447 3434 972 4092 
Q 1497 4750 2381 4750 
Q 2619 4750 2861 4703 
Q 3103 4656 3366 4563 
z
" transform="scale(0.015625)"/>
       </defs>
       <use xlink:href="#DejaVuSans-36"/>
       <use xlink:href="#DejaVuSans-30" x="63.623047"/>
      </g>
     </g>
    </g>
    <g id="xtick_5">
     <g id="text_5">
      <!-- 80 -->
      <g transform="translate(789.874125 287.06881) scale(0.08 -0.08)">
       <defs>
        <path id="DejaVuSans-38" d="M 2034 2216 
Q 1584 2216 1326 1975 
Q 1069 1734 1069 1313 
Q 1069 891 1326 650 
Q 1584 409 2034 409 
Q 2484 409 2743 651 
Q 3003 894 3003 1313 
Q 3003 1734 2745 1975 
Q 2488 2216 2034 2216 
z
M 1403 2484 
Q 997 2584 770 2862 
Q 544 3141 544 3541 
Q 544 4100 942 4425 
Q 1341 4750 2034 4750 
Q 2731 4750 3128 4425 
Q 3525 4100 3525 3541 
Q 3525 3141 3298 2862 
Q 3072 2584 2669 2484 
Q 3125 2378 3379 2068 
Q 3634 1759 3634 1313 
Q 3634 634 3220 271 
Q 2806 -91 2034 -91 
Q 1263 -91 848 271 
Q 434 634 434 1313 
Q 434 1759 690 2068 
Q 947 2378 1403 2484 
z
M 1172 3481 
Q 1172 3119 1398 2916 
Q 1625 2713 2034 2713 
Q 2441 2713 2670 2916 
Q 2900 3119 2900 3481 
Q 2900 3844 2670 4047 
Q 2441 4250 2034 4250 
Q 1625 4250 1398 4047 
Q 1172 3844 1172 3481 
z
" transform="scale(0.015625)"/>
       </defs>
       <use xlink:href="#DejaVuSans-38"/>
       <use xlink:href="#DejaVuSans-30" x="63.623047"/>
      </g>
     </g>
    </g>
    <g id="xtick_6">
     <g id="text_6">
      <!-- 100 -->
      <g transform="translate(977.828125 287.06881) scale(0.08 -0.08)">
       <defs>
        <path id="DejaVuSans-31" d="M 794 531 
L 1825 531 
L 1825 4091 
L 703 3866 
L 703 4441 
L 1819 4666 
L 2450 4666 
L 2450 531 
L 3481 531 
L 3481 0 
L 794 0 
L 794 531 
z
" transform="scale(0.015625)"/>
       </defs>
       <use xlink:href="#DejaVuSans-31"/>
       <use xlink:href="#DejaVuSans-30" x="63.623047"/>
       <use xlink:href="#DejaVuSans-30" x="127.246094"/>
      </g>
     </g>
    </g>
    <g id="text_7">
     <!-- % GC -->
     <g transform="translate(495.510156 300.330997) scale(0.1 -0.1)">
      <defs>
       <path id="DejaVuSans-25" d="M 4653 2053 
Q 4381 2053 4226 1822 
Q 4072 1591 4072 1178 
Q 4072 772 4226 539 
Q 4381 306 4653 306 
Q 4919 306 5073 539 
Q 5228 772 5228 1178 
Q 5228 1588 5073 1820 
Q 4919 2053 4653 2053 
z
M 4653 2450 
Q 5147 2450 5437 2106 
Q 5728 1763 5728 1178 
Q 5728 594 5436 251 
Q 5144 -91 4653 -91 
Q 4153 -91 3862 251 
Q 3572 594 3572 1178 
Q 3572 1766 3864 2108 
Q 4156 2450 4653 2450 
z
M 1428 4353 
Q 1159 4353 1004 4120 
Q 850 3888 850 3481 
Q 850 3069 1003 2837 
Q 1156 2606 1428 2606 
Q 1700 2606 1854 2837 
Q 2009 3069 2009 3481 
Q 2009 3884 1853 4118 
Q 1697 4353 1428 4353 
z
M 4250 4750 
L 4750 4750 
L 1831 -91 
L 1331 -91 
L 4250 4750 
z
M 1428 4750 
Q 1922 4750 2215 4408 
Q 2509 4066 2509 3481 
Q 2509 2891 2217 2550 
Q 1925 2209 1428 2209 
Q 931 2209 642 2551 
Q 353 2894 353 3481 
Q 353 4063 643 4406 
Q 934 4750 1428 4750 
z
" transform="scale(0.015625)"/>
       <path id="DejaVuSans-20" transform="scale(0.015625)"/>
       <path id="DejaVuSans-47" d="M 3809 666 
L 3809 1919 
L 2778 1919 
L 2778 2438 
L 4434 2438 
L 4434 434 
Q 4069 175 3628 42 
Q 3188 -91 2688 -91 
Q 1594 -91 976 548 
Q 359 1188 359 2328 
Q 359 3472 976 4111 
Q 1594 4750 2688 4750 
Q 3144 4750 3555 4637 
Q 3966 4525 4313 4306 
L 4313 3634 
Q 3963 3931 3569 4081 
Q 3175 4231 2741 4231 
Q 1884 4231 1454 3753 
Q 1025 3275 1025 2328 
Q 1025 1384 1454 906 
Q 1884 428 2741 428 
Q 3075 428 3337 486 
Q 3600 544 3809 666 
z
" transform="scale(0.015625)"/>
       <path id="DejaVuSans-43" d="M 4122 4306 
L 4122 3641 
Q 3803 3938 3442 4084 
Q 3081 4231 2675 4231 
Q 1875 4231 1450 3742 
Q 1025 3253 1025 2328 
Q 1025 1406 1450 917 
Q 1875 428 2675 428 
Q 3081 428 3442 575 
Q 3803 722 4122 1019 
L 4122 359 
Q 3791 134 3420 21 
Q 3050 -91 2638 -91 
Q 1578 -91 968 557 
Q 359 1206 359 2328 
Q 359 3453 968 4101 
Q 1578 4750 2638 4750 
Q 3056 4750 3426 4639 
Q 3797 4528 4122 4306 
z
" transform="scale(0.015625)"/>
      </defs>
      <use xlink:href="#DejaVuSans-25"/>
      <use xlink:href="#DejaVuSans-20" x="95.019531"/>
      <use xlink:href="#DejaVuSans-47" x="126.806641"/>
      <use xlink:href="#DejaVuSans-43" x="204.296875"/>
     </g>
    </g>
   </g>
   <g id="matplotlib.axis_2">
    <g id="ytick_1">
     <g id="line2d_1">
      <path d="M 32.968125 273.99006 
L 985.463125 273.99006 
" clip-path="url(#p3d4f69978d)" style="fill: none; stroke: #dedede; stroke-linecap: square"/>
     </g>
     <g id="text_8">
      <!-- 0 -->
      <g transform="translate(20.878125 277.029435) scale(0.08 -0.08)">
       <use xlink:href="#DejaVuSans-30"/>
      </g>
     </g>
    </g>
    <g id="ytick_2">
     <g id="line2d_2">
      <path d="M 32.968125 242.74163 
L 985.463125 242.74163 
" clip-path="url(#p3d4f69978d)" style="fill: none; stroke: #dedede; stroke-linecap: square"/>
     </g>
     <g id="text_9">
      <!-- 1 -->
      <g transform="translate(20.878125 245.781005) scale(0.08 -0.08)">
       <use xlink:href="#DejaVuSans-31"/>
      </g>
     </g>
    </g>
    <g id="ytick_3">
     <g id="line2d_3">
      <path d="M 32.968125 211.493199 
L 985.463125 211.493199 
" clip-path="url(#p3d4f69978d)" style="fill: none; stroke: #dedede; stroke-linecap: square"/>
     </g>
     <g id="text_10">
      <!-- 2 -->
      <g transform="translate(20.878125 214.532574) scale(0.08 -0.08)">
       <use xlink:href="#DejaVuSans-32"/>
      </g>
     </g>
    </g>
    <g id="ytick_4">
     <g id="line2d_4">
      <path d="M 32.968125 180.244769 
L 985.463125 180.244769 
" clip-path="url(#p3d4f69978d)" style="fill: none; stroke: #dedede; stroke-linecap: square"/>
     </g>
     <g id="text_11">
      <!-- 3 -->
      <g transform="translate(20.878125 183.284144) scale(0.08 -0.08)">
       <defs>
        <path id="DejaVuSans-33" d="M 2597 2516 
Q 3050 2419 3304 2112 
Q 3559 1806 3559 1356 
Q 3559 666 3084 287 
Q 2609 -91 1734 -91 
Q 1441 -91 1130 -33 
Q 819 25 488 141 
L 488 750 
Q 750 597 1062 519 
Q 1375 441 1716 441 
Q 2309 441 2620 675 
Q 2931 909 2931 1356 
Q 2931 1769 2642 2001 
Q 2353 2234 1838 2234 
L 1294 2234 
L 1294 2753 
L 1863 2753 
Q 2328 2753 2575 2939 
Q 2822 3125 2822 3475 
Q 2822 3834 2567 4026 
Q 2313 4219 1838 4219 
Q 1578 4219 1281 4162 
Q 984 4106 628 3988 
L 628 4550 
Q 988 4650 1302 4700 
Q 1616 4750 1894 4750 
Q 2613 4750 3031 4423 
Q 3450 4097 3450 3541 
Q 3450 3153 3228 2886 
Q 3006 2619 2597 2516 
z
" transform="scale(0.015625)"/>
       </defs>
       <use xlink:href="#DejaVuSans-33"/>
      </g>
     </g>
    </g>
    <g id="ytick_5">
     <g id="line2d_5">
      <path d="M 32.968125 148.996339 
L 985.463125 148.996339 
" clip-path="url(#p3d4f69978d)" style="fill: none; stroke: #dedede; stroke-linecap: square"/>
     </g>
     <g id="text_12">
      <!-- 4 -->
      <g transform="translate(20.878125 152.035714) scale(0.08 -0.08)">
       <use xlink:href="#DejaVuSans-34"/>
      </g>
     </g>
    </g>
    <g id="ytick_6">
     <g id="line2d_6">
      <path d="M 32.968125 117.747908 
L 985.463125 117.747908 
" clip-path="url(#p3d4f69978d)" style="fill: none; stroke: #dedede; stroke-linecap: square"/>
     </g>
     <g id="text_13">
      <!-- 5 -->
      <g transform="translate(20.878125 120.787283) scale(0.08 -0.08)">
       <defs>
        <path id="DejaVuSans-35" d="M 691 4666 
L 3169 4666 
L 3169 4134 
L 1269 4134 
L 1269 2991 
Q 1406 3038 1543 3061 
Q 1681 3084 1819 3084 
Q 2600 3084 3056 2656 
Q 3513 2228 3513 1497 
Q 3513 744 3044 326 
Q 2575 -91 1722 -91 
Q 1428 -91 1123 -41 
Q 819 9 494 109 
L 494 744 
Q 775 591 1075 516 
Q 1375 441 1709 441 
Q 2250 441 2565 725 
Q 2881 1009 2881 1497 
Q 2881 1984 2565 2268 
Q 2250 2553 1709 2553 
Q 1456 2553 1204 2497 
Q 953 2441 691 2322 
L 691 4666 
z
" transform="scale(0.015625)"/>
       </defs>
       <use xlink:href="#DejaVuSans-35"/>
      </g>
     </g>
    </g>
    <g id="ytick_7">
     <g id="line2d_7">
      <path d="M 32.968125 86.499478 
L 985.463125 86.499478 
" clip-path="url(#p3d4f69978d)" style="fill: none; stroke: #dedede; stroke-linecap: square"/>
     </g>
     <g id="text_14">
      <!-- 6 -->
      <g transform="translate(20.878125 89.538853) scale(0.08 -0.08)">
       <use xlink:href="#DejaVuSans-36"/>
      </g>
     </g>
    </g>
    <g id="ytick_8">
     <g id="line2d_8">
      <path d="M 32.968125 55.251048 
L 985.463125 55.251048 
" clip-path="url(#p3d4f69978d)" style="fill: none; stroke: #dedede; stroke-linecap: square"/>
     </g>
     <g id="text_15">
      <!-- 7 -->
      <g transform="translate(20.878125 58.290423) scale(0.08 -0.08)">
       <defs>
        <path id="DejaVuSans-37" d="M 525 4666 
L 3525 4666 
L 3525 4397 
L 1831 0 
L 1172 0 
L 2766 4134 
L 525 4134 
L 525 4666 
z
" transform="scale(0.015625)"/>
       </defs>
       <use xlink:href="#DejaVuSans-37"/>
      </g>
     </g>
    </g>
    <g id="text_16">
     <!-- Count -->
     <g transform="translate(14.798437 167.584897) rotate(-90) scale(0.1 -0.1)">
      <defs>
       <path id="DejaVuSans-6f" d="M 1959 3097 
Q 1497 3097 1228 2736 
Q 959 2375 959 1747 
Q 959 1119 1226 758 
Q 1494 397 1959 397 
Q 2419 397 2687 759 
Q 2956 1122 2956 1747 
Q 2956 2369 2687 2733 
Q 2419 3097 1959 3097 
z
M 1959 3584 
Q 2709 3584 3137 3096 
Q 3566 2609 3566 1747 
Q 3566 888 3137 398 
Q 2709 -91 1959 -91 
Q 1206 -91 779 398 
Q 353 888 353 1747 
Q 353 2609 779 3096 
Q 1206 3584 1959 3584 
z
" transform="scale(0.015625)"/>
       <path id="DejaVuSans-75" d="M 544 1381 
L 544 3500 
L 1119 3500 
L 1119 1403 
Q 1119 906 1312 657 
Q 1506 409 1894 409 
Q 2359 409 2629 706 
Q 2900 1003 2900 1516 
L 2900 3500 
L 3475 3500 
L 3475 0 
L 2900 0 
L 2900 538 
Q 2691 219 2414 64 
Q 2138 -91 1772 -91 
Q 1169 -91 856 284 
Q 544 659 544 1381 
z
M 1991 3584 
L 1991 3584 
z
" transform="scale(0.015625)"/>
       <path id="DejaVuSans-6e" d="M 3513 2113 
L 3513 0 
L 2938 0 
L 2938 2094 
Q 2938 2591 2744 2837 
Q 2550 3084 2163 3084 
Q 1697 3084 1428 2787 
Q 1159 2491 1159 1978 
L 1159 0 
L 581 0 
L 581 3500 
L 1159 3500 
L 1159 2956 
Q 1366 3272 1645 3428 
Q 1925 3584 2291 3584 
Q 2894 3584 3203 3211 
Q 3513 2838 3513 2113 
z
" transform="scale(0.015625)"/>
       <path id="DejaVuSans-74" d="M 1172 4494 
L 1172 3500 
L 2356 3500 
L 2356 3053 
L 1172 3053 
L 1172 1153 
Q 1172 725 1289 603 
Q 1406 481 1766 481 
L 2356 481 
L 2356 0 
L 1766 0 
Q 1100 0 847 248 
Q 594 497 594 1153 
L 594 3053 
L 172 3053 
L 172 3500 
L 594 3500 
L 594 4494 
L 1172 4494 
z
" transform="scale(0.015625)"/>
      </defs>
      <use xlink:href="#DejaVuSans-43"/>
      <use xlink:href="#DejaVuSans-6f" x="69.824219"/>
      <use xlink:href="#DejaVuSans-75" x="131.005859"/>
      <use xlink:href="#DejaVuSans-6e" x="194.384766"/>
      <use xlink:href="#DejaVuSans-74" x="257.763672"/>
     </g>
    </g>
    <g id="text_17">
     <!-- 1e7 -->
     <g transform="translate(32.968125 28.48286) scale(0.1 -0.1)">
      <defs>
       <path id="DejaVuSans-65" d="M 3597 1894 
L 3597 1613 
L 953 1613 
Q 991 1019 1311 708 
Q 1631 397 2203 397 
Q 2534 397 2845 478 
Q 3156 559 3463 722 
L 3463 178 
Q 3153 47 2828 -22 
Q 2503 -91 2169 -91 
Q 1331 -91 842 396 
Q 353 884 353 1716 
Q 353 2575 817 3079 
Q 1281 3584 2069 3584 
Q 2775 3584 3186 3129 
Q 3597 2675 3597 1894 
z
M 3022 2063 
Q 3016 2534 2758 2815 
Q 2500 3097 2075 3097 
Q 1594 3097 1305 2825 
Q 1016 2553 972 2059 
L 3022 2063 
z
" transform="scale(0.015625)"/>
      </defs>
      <use xlink:href="#DejaVuSans-31"/>
      <use xlink:href="#DejaVuSans-65" x="63.623047"/>
      <use xlink:href="#DejaVuSans-37" x="125.146484"/>
     </g>
    </g>
   </g>
   <g id="line2d_9">
    <path d="M 32.968125 273.987566 
L 42.493075 273.987566 
L 52.018025 273.986527 
L 61.542975 273.985488 
L 71.067925 273.985488 
L 80.592875 273.985488 
L 90.117825 273.982403 
L 99.642775 273.979317 
L 109.167725 273.979317 
L 118.692675 273.979317 
L 128.217625 273.971111 
L 137.742575 273.962905 
L 147.267525 273.962905 
L 156.792475 273.945401 
L 166.317425 273.927897 
L 175.842375 273.927897 
L 185.367325 273.927897 
L 194.892275 273.855557 
L 204.417225 273.783217 
L 213.942175 273.783217 
L 223.467125 273.783217 
L 232.992075 273.293603 
L 242.517025 272.803988 
L 252.041975 272.803988 
L 261.566925 272.803988 
L 271.091875 270.512711 
L 280.616825 268.221434 
L 290.141775 268.221434 
L 299.666725 268.221434 
L 309.191675 260.321109 
L 318.716625 252.420784 
L 328.241575 252.420784 
L 337.766525 252.420784 
L 347.291475 234.223942 
L 356.816425 216.0271 
L 366.341375 216.0271 
L 375.866325 216.0271 
L 385.391275 186.512174 
L 394.916225 156.997249 
L 404.441175 156.997249 
L 413.966125 124.18308 
L 423.491075 91.368912 
L 433.016025 91.368912 
L 442.540975 91.368912 
L 452.065925 68.469243 
L 461.590875 45.569575 
L 471.115825 45.569575 
L 480.640775 45.569575 
L 490.165725 44.300191 
L 499.690675 43.030808 
L 509.215625 43.030808 
L 518.740575 43.030808 
L 528.265525 63.308434 
L 537.790475 83.586059 
L 547.315425 83.586059 
L 556.840375 83.586059 
L 566.365325 114.716187 
L 575.890275 145.846316 
L 585.415225 145.846316 
L 594.940175 145.846316 
L 604.465125 175.077571 
L 613.990075 204.308826 
L 623.515025 204.308826 
L 633.039975 224.135467 
L 642.564925 243.962109 
L 652.089875 243.962109 
L 661.614825 243.962109 
L 671.139775 253.960416 
L 680.664725 263.958723 
L 690.189675 263.958723 
L 699.714625 263.958723 
L 709.239575 267.725062 
L 718.764525 271.491401 
L 728.289475 271.491401 
L 737.814425 271.491401 
L 747.339375 272.506308 
L 756.864325 273.521215 
L 766.389275 273.521215 
L 775.914225 273.521215 
L 785.439175 273.698525 
L 794.964125 273.875834 
L 804.489075 273.875834 
L 814.014025 273.875834 
L 823.538975 273.917036 
L 833.063925 273.958237 
L 842.588875 273.958237 
L 852.113825 273.958237 
L 861.638775 273.968186 
L 871.163725 273.978136 
L 880.688675 273.978136 
L 890.213625 273.980064 
L 899.738575 273.981992 
L 909.263525 273.981992 
L 918.788475 273.981992 
L 928.313425 273.985398 
L 937.838375 273.988804 
L 947.363325 273.988804 
L 956.888275 273.988804 
L 966.413225 273.989274 
L 975.938175 273.989744 
L 985.463125 273.989744 
" clip-path="url(#p3d4f69978d)" style="fill: none; stroke: #5cb85c; stroke-linecap: square"/>
   </g>
   <g id="line2d_10">
    <path d="M 32.968125 273.737151 
L 42.493075 273.473559 
L 52.018025 273.139412 
L 61.542975 273.167972 
L 71.067925 273.262418 
L 80.592875 273.290751 
L 90.117825 273.31955 
L 99.642775 273.322158 
L 109.167725 273.332152 
L 118.692675 273.292872 
L 128.217625 273.243508 
L 137.742575 273.233559 
L 147.267525 273.170595 
L 156.792475 273.105572 
L 166.317425 273.060204 
L 175.842375 272.862646 
L 185.367325 272.679977 
L 194.892275 272.576615 
L 204.417225 272.368809 
L 213.942175 272.033229 
L 223.467125 271.569694 
L 232.992075 270.963537 
L 242.517025 269.851694 
L 252.041975 268.553767 
L 261.566925 267.492291 
L 271.091875 266.332904 
L 280.616825 264.661868 
L 290.141775 262.488491 
L 299.666725 260.25042 
L 309.191675 258.24187 
L 318.716625 256.859517 
L 328.241575 255.798129 
L 337.766525 253.967786 
L 347.291475 251.84543 
L 356.816425 250.281954 
L 366.341375 248.211863 
L 375.866325 245.990706 
L 385.391275 244.834168 
L 394.916225 243.994607 
L 404.441175 242.578988 
L 413.966125 240.887427 
L 423.491075 239.726325 
L 433.016025 238.83762 
L 442.540975 237.51425 
L 452.065925 236.053864 
L 461.590875 233.908022 
L 471.115825 231.169742 
L 480.640775 228.345709 
L 490.165725 226.02419 
L 499.690675 225.158189 
L 509.215625 225.043984 
L 518.740575 225.602803 
L 528.265525 227.370058 
L 537.790475 230.183225 
L 547.315425 232.930816 
L 556.840375 234.382926 
L 566.365325 236.187679 
L 575.890275 238.779857 
L 585.415225 241.031734 
L 594.940175 243.492325 
L 604.465125 243.601086 
L 613.990075 244.884941 
L 623.515025 250.852716 
L 633.039975 255.633131 
L 642.564925 257.990468 
L 652.089875 260.301374 
L 661.614825 262.70653 
L 671.139775 265.247244 
L 680.664725 267.693579 
L 690.189675 269.484964 
L 699.714625 270.610322 
L 709.239575 271.495788 
L 718.764525 272.255213 
L 728.289475 272.687202 
L 737.814425 272.951167 
L 747.339375 273.130306 
L 756.864325 273.236195 
L 766.389275 273.327481 
L 775.914225 273.467125 
L 785.439175 273.59533 
L 794.964125 273.681043 
L 804.489075 273.762756 
L 814.014025 273.812433 
L 823.538975 273.840369 
L 833.063925 273.887259 
L 842.588875 273.92289 
L 852.113825 273.939156 
L 861.638775 273.947493 
L 871.163725 273.955112 
L 880.688675 273.963468 
L 890.213625 273.971064 
L 899.738575 273.975804 
L 909.263525 273.978807 
L 918.788475 273.980757 
L 928.313425 273.982137 
L 937.838375 273.983257 
L 947.363325 273.984404 
L 956.888275 273.984895 
L 966.413225 273.981904 
L 975.938175 273.969809 
L 985.463125 273.96079 
" clip-path="url(#p3d4f69978d)" style="fill: none; stroke: #f0ad4e; stroke-linecap: square"/>
   </g>
   <g id="line2d_11">
    <path d="M 32.968125 273.987188 
L 42.493075 273.987188 
L 52.018025 273.980543 
L 61.542975 273.973898 
L 71.067925 273.973898 
L 80.592875 273.973898 
L 90.117825 273.949251 
L 99.642775 273.924604 
L 109.167725 273.924604 
L 118.692675 273.924604 
L 128.217625 273.863976 
L 137.742575 273.803348 
L 147.267525 273.803348 
L 156.792475 273.704851 
L 166.317425 273.606354 
L 175.842375 273.606354 
L 185.367325 273.606354 
L 194.892275 273.44942 
L 204.417225 273.292486 
L 213.942175 273.292486 
L 223.467125 273.292486 
L 232.992075 272.737807 
L 242.517025 272.183129 
L 252.041975 272.183129 
L 261.566925 272.183129 
L 271.091875 269.734378 
L 280.616825 267.285628 
L 290.141775 267.285628 
L 299.666725 267.285628 
L 309.191675 259.780016 
L 318.716625 252.274404 
L 328.241575 252.274404 
L 337.766525 252.274404 
L 347.291475 236.153206 
L 356.816425 220.032008 
L 366.341375 220.032008 
L 375.866325 220.032008 
L 385.391275 195.358624 
L 394.916225 170.68524 
L 404.441175 170.68524 
L 413.966125 144.541526 
L 423.491075 118.397813 
L 433.016025 118.397813 
L 442.540975 118.397813 
L 452.065925 101.642997 
L 461.590875 84.888181 
L 471.115825 84.888181 
L 480.640775 84.888181 
L 490.165725 85.713852 
L 499.690675 86.539523 
L 509.215625 86.539523 
L 518.740575 86.539523 
L 528.265525 104.11921 
L 537.790475 121.698897 
L 547.315425 121.698897 
L 556.840375 121.698897 
L 566.365325 147.282584 
L 575.890275 172.866271 
L 585.415225 172.866271 
L 594.940175 172.866271 
L 604.465125 196.272442 
L 613.990075 219.678613 
L 623.515025 219.678613 
L 633.039975 235.281926 
L 642.564925 250.885239 
L 652.089875 250.885239 
L 661.614825 250.885239 
L 671.139775 258.63093 
L 680.664725 266.376621 
L 690.189675 266.376621 
L 699.714625 266.376621 
L 709.239575 269.272074 
L 718.764525 272.167527 
L 728.289475 272.167527 
L 737.814425 272.167527 
L 747.339375 272.921125 
L 756.864325 273.674723 
L 766.389275 273.674723 
L 775.914225 273.674723 
L 785.439175 273.809443 
L 794.964125 273.944162 
L 804.489075 273.944162 
L 814.014025 273.944162 
L 823.538975 273.961519 
L 833.063925 273.978876 
L 842.588875 273.978876 
L 852.113825 273.978876 
L 861.638775 273.982457 
L 871.163725 273.986038 
L 880.688675 273.986038 
L 890.213625 273.986973 
L 899.738575 273.987907 
L 909.263525 273.987907 
L 918.788475 273.987907 
L 928.313425 273.988565 
L 937.838375 273.989223 
L 947.363325 273.989223 
L 956.888275 273.989223 
L 966.413225 273.989499 
L 975.938175 273.989776 
L 985.463125 273.989776 
" clip-path="url(#p3d4f69978d)" style="fill: none; stroke: #5cb85c; stroke-linecap: square"/>
   </g>
   <g id="line2d_12">
    <path d="M 32.968125 273.778677 
L 42.493075 273.554463 
L 52.018025 273.126002 
L 61.542975 272.881411 
L 71.067925 272.799524 
L 80.592875 272.759122 
L 90.117825 272.739256 
L 99.642775 272.720086 
L 109.167725 272.719105 
L 118.692675 272.677295 
L 128.217625 272.613823 
L 137.742575 272.589343 
L 147.267525 272.577531 
L 156.792475 272.489865 
L 166.317425 272.381856 
L 175.842375 272.282918 
L 185.367325 272.07245 
L 194.892275 271.74291 
L 204.417225 271.400576 
L 213.942175 270.965267 
L 223.467125 270.444501 
L 232.992075 269.765827 
L 242.517025 269.329088 
L 252.041975 268.785878 
L 261.566925 267.591616 
L 271.091875 266.325762 
L 280.616825 265.022117 
L 290.141775 263.260963 
L 299.666725 261.249469 
L 309.191675 259.259584 
L 318.716625 258.007672 
L 328.241575 257.268553 
L 337.766525 255.827222 
L 347.291475 254.923799 
L 356.816425 254.021582 
L 366.341375 252.032935 
L 375.866325 250.196546 
L 385.391275 248.565462 
L 394.916225 247.275636 
L 404.441175 246.598911 
L 413.966125 245.421272 
L 423.491075 243.900225 
L 433.016025 242.976735 
L 442.540975 241.890632 
L 452.065925 241.116586 
L 461.590875 240.084012 
L 471.115825 238.213874 
L 480.640775 236.880846 
L 490.165725 235.839076 
L 499.690675 234.838558 
L 509.215625 235.007829 
L 518.740575 236.369992 
L 528.265525 237.948638 
L 537.790475 239.157743 
L 547.315425 239.519793 
L 556.840375 240.369254 
L 566.365325 241.2258 
L 575.890275 243.341435 
L 585.415225 245.970217 
L 594.940175 246.879791 
L 604.465125 247.770311 
L 613.990075 250.054903 
L 623.515025 253.123744 
L 633.039975 256.32243 
L 642.564925 259.374435 
L 652.089875 261.68372 
L 661.614825 263.80108 
L 671.139775 264.740815 
L 680.664725 266.304273 
L 690.189675 268.728859 
L 699.714625 270.151586 
L 709.239575 271.135632 
L 718.764525 272.028363 
L 728.289475 272.648938 
L 737.814425 272.930477 
L 747.339375 273.131667 
L 756.864325 273.262345 
L 766.389275 273.363879 
L 775.914225 273.404677 
L 785.439175 273.484218 
L 794.964125 273.616218 
L 804.489075 273.695078 
L 814.014025 273.744997 
L 823.538975 273.782097 
L 833.063925 273.813492 
L 842.588875 273.84797 
L 852.113825 273.867838 
L 861.638775 273.873008 
L 871.163725 273.879195 
L 880.688675 273.883415 
L 890.213625 273.883593 
L 899.738575 273.882936 
L 909.263525 273.881722 
L 918.788475 273.87918 
L 928.313425 273.874917 
L 937.838375 273.869335 
L 947.363325 273.858515 
L 956.888275 273.837179 
L 966.413225 273.785692 
L 975.938175 273.324451 
L 985.463125 272.900696 
" clip-path="url(#p3d4f69978d)" style="fill: none; stroke: #5cb85c; stroke-linecap: square"/>
   </g>
   <g id="line2d_13">
    <path d="M 32.968125 273.99006 
L 985.463125 273.99006 
" clip-path="url(#p3d4f69978d)" style="fill: none; stroke: #dedede; stroke-width: 2; stroke-linecap: square"/>
   </g>
   <g id="text_18">
    <!-- FastQC: Per Sequence GC Content -->
    <g transform="translate(372.579375 19.3575) scale(0.16 -0.16)">
     <defs>
      <path id="DejaVuSans-46" d="M 628 4666 
L 3309 4666 
L 3309 4134 
L 1259 4134 
L 1259 2759 
L 3109 2759 
L 3109 2228 
L 1259 2228 
L 1259 0 
L 628 0 
L 628 4666 
z
" transform="scale(0.015625)"/>
      <path id="DejaVuSans-61" d="M 2194 1759 
Q 1497 1759 1228 1600 
Q 959 1441 959 1056 
Q 959 750 1161 570 
Q 1363 391 1709 391 
Q 2188 391 2477 730 
Q 2766 1069 2766 1631 
L 2766 1759 
L 2194 1759 
z
M 3341 1997 
L 3341 0 
L 2766 0 
L 2766 531 
Q 2569 213 2275 61 
Q 1981 -91 1556 -91 
Q 1019 -91 701 211 
Q 384 513 384 1019 
Q 384 1609 779 1909 
Q 1175 2209 1959 2209 
L 2766 2209 
L 2766 2266 
Q 2766 2663 2505 2880 
Q 2244 3097 1772 3097 
Q 1472 3097 1187 3025 
Q 903 2953 641 2809 
L 641 3341 
Q 956 3463 1253 3523 
Q 1550 3584 1831 3584 
Q 2591 3584 2966 3190 
Q 3341 2797 3341 1997 
z
" transform="scale(0.015625)"/>
      <path id="DejaVuSans-73" d="M 2834 3397 
L 2834 2853 
Q 2591 2978 2328 3040 
Q 2066 3103 1784 3103 
Q 1356 3103 1142 2972 
Q 928 2841 928 2578 
Q 928 2378 1081 2264 
Q 1234 2150 1697 2047 
L 1894 2003 
Q 2506 1872 2764 1633 
Q 3022 1394 3022 966 
Q 3022 478 2636 193 
Q 2250 -91 1575 -91 
Q 1294 -91 989 -36 
Q 684 19 347 128 
L 347 722 
Q 666 556 975 473 
Q 1284 391 1588 391 
Q 1994 391 2212 530 
Q 2431 669 2431 922 
Q 2431 1156 2273 1281 
Q 2116 1406 1581 1522 
L 1381 1569 
Q 847 1681 609 1914 
Q 372 2147 372 2553 
Q 372 3047 722 3315 
Q 1072 3584 1716 3584 
Q 2034 3584 2315 3537 
Q 2597 3491 2834 3397 
z
" transform="scale(0.015625)"/>
      <path id="DejaVuSans-51" d="M 2522 4238 
Q 1834 4238 1429 3725 
Q 1025 3213 1025 2328 
Q 1025 1447 1429 934 
Q 1834 422 2522 422 
Q 3209 422 3611 934 
Q 4013 1447 4013 2328 
Q 4013 3213 3611 3725 
Q 3209 4238 2522 4238 
z
M 3406 84 
L 4238 -825 
L 3475 -825 
L 2784 -78 
Q 2681 -84 2626 -87 
Q 2572 -91 2522 -91 
Q 1538 -91 948 567 
Q 359 1225 359 2328 
Q 359 3434 948 4092 
Q 1538 4750 2522 4750 
Q 3503 4750 4090 4092 
Q 4678 3434 4678 2328 
Q 4678 1516 4351 937 
Q 4025 359 3406 84 
z
" transform="scale(0.015625)"/>
      <path id="DejaVuSans-3a" d="M 750 794 
L 1409 794 
L 1409 0 
L 750 0 
L 750 794 
z
M 750 3309 
L 1409 3309 
L 1409 2516 
L 750 2516 
L 750 3309 
z
" transform="scale(0.015625)"/>
      <path id="DejaVuSans-50" d="M 1259 4147 
L 1259 2394 
L 2053 2394 
Q 2494 2394 2734 2622 
Q 2975 2850 2975 3272 
Q 2975 3691 2734 3919 
Q 2494 4147 2053 4147 
L 1259 4147 
z
M 628 4666 
L 2053 4666 
Q 2838 4666 3239 4311 
Q 3641 3956 3641 3272 
Q 3641 2581 3239 2228 
Q 2838 1875 2053 1875 
L 1259 1875 
L 1259 0 
L 628 0 
L 628 4666 
z
" transform="scale(0.015625)"/>
      <path id="DejaVuSans-72" d="M 2631 2963 
Q 2534 3019 2420 3045 
Q 2306 3072 2169 3072 
Q 1681 3072 1420 2755 
Q 1159 2438 1159 1844 
L 1159 0 
L 581 0 
L 581 3500 
L 1159 3500 
L 1159 2956 
Q 1341 3275 1631 3429 
Q 1922 3584 2338 3584 
Q 2397 3584 2469 3576 
Q 2541 3569 2628 3553 
L 2631 2963 
z
" transform="scale(0.015625)"/>
      <path id="DejaVuSans-53" d="M 3425 4513 
L 3425 3897 
Q 3066 4069 2747 4153 
Q 2428 4238 2131 4238 
Q 1616 4238 1336 4038 
Q 1056 3838 1056 3469 
Q 1056 3159 1242 3001 
Q 1428 2844 1947 2747 
L 2328 2669 
Q 3034 2534 3370 2195 
Q 3706 1856 3706 1288 
Q 3706 609 3251 259 
Q 2797 -91 1919 -91 
Q 1588 -91 1214 -16 
Q 841 59 441 206 
L 441 856 
Q 825 641 1194 531 
Q 1563 422 1919 422 
Q 2459 422 2753 634 
Q 3047 847 3047 1241 
Q 3047 1584 2836 1778 
Q 2625 1972 2144 2069 
L 1759 2144 
Q 1053 2284 737 2584 
Q 422 2884 422 3419 
Q 422 4038 858 4394 
Q 1294 4750 2059 4750 
Q 2388 4750 2728 4690 
Q 3069 4631 3425 4513 
z
" transform="scale(0.015625)"/>
      <path id="DejaVuSans-71" d="M 947 1747 
Q 947 1113 1208 752 
Q 1469 391 1925 391 
Q 2381 391 2643 752 
Q 2906 1113 2906 1747 
Q 2906 2381 2643 2742 
Q 2381 3103 1925 3103 
Q 1469 3103 1208 2742 
Q 947 2381 947 1747 
z
M 2906 525 
Q 2725 213 2448 61 
Q 2172 -91 1784 -91 
Q 1150 -91 751 415 
Q 353 922 353 1747 
Q 353 2572 751 3078 
Q 1150 3584 1784 3584 
Q 2172 3584 2448 3432 
Q 2725 3281 2906 2969 
L 2906 3500 
L 3481 3500 
L 3481 -1331 
L 2906 -1331 
L 2906 525 
z
" transform="scale(0.015625)"/>
      <path id="DejaVuSans-63" d="M 3122 3366 
L 3122 2828 
Q 2878 2963 2633 3030 
Q 2388 3097 2138 3097 
Q 1578 3097 1268 2742 
Q 959 2388 959 1747 
Q 959 1106 1268 751 
Q 1578 397 2138 397 
Q 2388 397 2633 464 
Q 2878 531 3122 666 
L 3122 134 
Q 2881 22 2623 -34 
Q 2366 -91 2075 -91 
Q 1284 -91 818 406 
Q 353 903 353 1747 
Q 353 2603 823 3093 
Q 1294 3584 2113 3584 
Q 2378 3584 2631 3529 
Q 2884 3475 3122 3366 
z
" transform="scale(0.015625)"/>
     </defs>
     <use xlink:href="#DejaVuSans-46"/>
     <use xlink:href="#DejaVuSans-61" x="48.394531"/>
     <use xlink:href="#DejaVuSans-73" x="109.673828"/>
     <use xlink:href="#DejaVuSans-74" x="161.773438"/>
     <use xlink:href="#DejaVuSans-51" x="200.982422"/>
     <use xlink:href="#DejaVuSans-43" x="279.693359"/>
     <use xlink:href="#DejaVuSans-3a" x="349.517578"/>
     <use xlink:href="#DejaVuSans-20" x="383.208984"/>
     <use xlink:href="#DejaVuSans-50" x="414.996094"/>
     <use xlink:href="#DejaVuSans-65" x="471.673828"/>
     <use xlink:href="#DejaVuSans-72" x="533.197266"/>
     <use xlink:href="#DejaVuSans-20" x="574.310547"/>
     <use xlink:href="#DejaVuSans-53" x="606.097656"/>
     <use xlink:href="#DejaVuSans-65" x="669.574219"/>
     <use xlink:href="#DejaVuSans-71" x="731.097656"/>
     <use xlink:href="#DejaVuSans-75" x="794.574219"/>
     <use xlink:href="#DejaVuSans-65" x="857.953125"/>
     <use xlink:href="#DejaVuSans-6e" x="919.476562"/>
     <use xlink:href="#DejaVuSans-63" x="982.855469"/>
     <use xlink:href="#DejaVuSans-65" x="1037.835938"/>
     <use xlink:href="#DejaVuSans-20" x="1099.359375"/>
     <use xlink:href="#DejaVuSans-47" x="1131.146484"/>
     <use xlink:href="#DejaVuSans-43" x="1208.636719"/>
     <use xlink:href="#DejaVuSans-20" x="1278.460938"/>
     <use xlink:href="#DejaVuSans-43" x="1310.248047"/>
     <use xlink:href="#DejaVuSans-6f" x="1380.072266"/>
     <use xlink:href="#DejaVuSans-6e" x="1441.253906"/>
     <use xlink:href="#DejaVuSans-74" x="1504.632812"/>
     <use xlink:href="#DejaVuSans-65" x="1543.841797"/>
     <use xlink:href="#DejaVuSans-6e" x="1605.365234"/>
     <use xlink:href="#DejaVuSans-74" x="1668.744141"/>
    </g>
   </g>
   <g id="legend_1">
    <g id="line2d_14">
     <path d="M 40.168125 315.455394 
L 48.168125 315.455394 
L 56.168125 315.455394 
" style="fill: none; stroke: #5cb85c; stroke-linecap: square"/>
    </g>
    <g id="text_19">
     <!-- GC1_1 -->
     <g transform="translate(62.568125 318.255394) scale(0.08 -0.08)">
      <defs>
       <path id="DejaVuSans-5f" d="M 3263 -1063 
L 3263 -1509 
L -63 -1509 
L -63 -1063 
L 3263 -1063 
z
" transform="scale(0.015625)"/>
      </defs>
      <use xlink:href="#DejaVuSans-47"/>
      <use xlink:href="#DejaVuSans-43" x="77.490234"/>
      <use xlink:href="#DejaVuSans-31" x="147.314453"/>
      <use xlink:href="#DejaVuSans-5f" x="210.9375"/>
      <use xlink:href="#DejaVuSans-31" x="260.9375"/>
     </g>
    </g>
    <g id="line2d_15">
     <path d="M 336.744792 315.455394 
L 344.744792 315.455394 
L 352.744792 315.455394 
" style="fill: none; stroke: #f0ad4e; stroke-linecap: square"/>
    </g>
    <g id="text_20">
     <!-- GC1_2 -->
     <g transform="translate(359.144792 318.255394) scale(0.08 -0.08)">
      <use xlink:href="#DejaVuSans-47"/>
      <use xlink:href="#DejaVuSans-43" x="77.490234"/>
      <use xlink:href="#DejaVuSans-31" x="147.314453"/>
      <use xlink:href="#DejaVuSans-5f" x="210.9375"/>
      <use xlink:href="#DejaVuSans-32" x="260.9375"/>
     </g>
    </g>
    <g id="line2d_16">
     <path d="M 633.321458 315.455394 
L 641.321458 315.455394 
L 649.321458 315.455394 
" style="fill: none; stroke: #5cb85c; stroke-linecap: square"/>
    </g>
    <g id="text_21">
     <!-- GC2_1 -->
     <g transform="translate(655.721458 318.255394) scale(0.08 -0.08)">
      <use xlink:href="#DejaVuSans-47"/>
      <use xlink:href="#DejaVuSans-43" x="77.490234"/>
      <use xlink:href="#DejaVuSans-32" x="147.314453"/>
      <use xlink:href="#DejaVuSans-5f" x="210.9375"/>
      <use xlink:href="#DejaVuSans-31" x="260.9375"/>
     </g>
    </g>
    <g id="line2d_17">
     <path d="M 929.898125 315.455394 
L 937.898125 315.455394 
L 945.898125 315.455394 
" style="fill: none; stroke: #5cb85c; stroke-linecap: square"/>
    </g>
    <g id="text_22">
     <!-- GC2_2 -->
     <g transform="translate(952.298125 318.255394) scale(0.08 -0.08)">
      <use xlink:href="#DejaVuSans-47"/>
      <use xlink:href="#DejaVuSans-43" x="77.490234"/>
      <use xlink:href="#DejaVuSans-32" x="147.314453"/>
      <use xlink:href="#DejaVuSans-5f" x="210.9375"/>
      <use xlink:href="#DejaVuSans-32" x="260.9375"/>
     </g>
    </g>
   </g>
  </g>
 </g>
 <defs>
  <clipPath id="p3d4f69978d">
   <rect x="32.968125" y="31.48286" width="952.495" height="242.5072"/>
  </clipPath>
 </defs>
</svg>
